<svg xmlns="http://www.w3.org/2000/svg" width="40" height="40" fill="none" viewBox="0 0 40 40"><circle cx="20" cy="20" r="20" fill="#f2f2f2"/><path fill="#a2a2a2" d="M16.8 24.8c-.88 0-1.592.72-1.592 1.6S15.92 28 16.8 28s1.6-.72 1.6-1.6-.72-1.6-1.6-1.6M12 12v1.6h1.6l2.88 6.072-1.08 1.96c-.128.224-.2.488-.2.768 0 .88.72 1.6 1.6 1.6h9.6v-1.6h-9.264a.2.2 0 0 1-.2-.2l.024-.096.72-1.304h5.96c.6 0 1.128-.328 1.4-.824l2.864-5.192A.802.802 0 0 0 27.2 13.6H15.368l-.752-1.6zm12.8 12.8c-.88 0-1.592.72-1.592 1.6S23.92 28 24.8 28s1.6-.72 1.6-1.6-.72-1.6-1.6-1.6"/></svg>