<svg xmlns="http://www.w3.org/2000/svg" width="90" height="90" fill="none" viewBox="0 0 90 90"><path fill="#b7d1d1" d="M48.125 24.938H26.25c-.879 0-1.562.78-1.562 1.562v3.125h12.5c.78 0 1.562.781 1.562 1.563 0 .878-.781 1.562-1.562 1.562H15.311a1.543 1.543 0 0 1-1.562-1.562c0-.782.684-1.563 1.563-1.563H20V26.5a6.23 6.23 0 0 1 6.25-6.25h21.875c3.418 0 6.25 2.832 6.25 6.25v3.125h4.102c1.464 0 2.832.586 3.906 1.66l9.082 9.082c1.074 1.074 1.66 2.442 1.66 3.906v11.914h.781c1.27 0 2.344 1.075 2.344 2.344 0 1.367-1.074 2.344-2.344 2.344H70c0 5.176-4.2 9.375-9.375 9.375-5.176 0-9.375-4.2-9.375-9.375h-12.5c0 5.176-4.2 9.375-9.375 9.375-5.176 0-9.375-4.2-9.375-9.375v-12.5h4.688v4.395c1.367-.782 2.93-1.27 4.687-1.27 3.418 0 6.445 1.953 8.105 4.688h10.645c.781 0 1.563-.684 1.563-1.563V26.5c0-.781-.782-1.562-1.563-1.562m20.02 18.75-9.082-9.083q-.294-.292-.586-.292h-4.102v9.374h13.867zM34.062 60.875c0-1.66-.977-3.125-2.344-4.004-1.465-.879-3.32-.879-4.688 0-1.465.879-2.343 2.344-2.343 4.004 0 1.758.878 3.223 2.343 4.102 1.367.879 3.223.879 4.688 0 1.367-.88 2.343-2.344 2.343-4.102m26.562 4.688c1.66 0 3.125-.88 4.004-2.344.879-1.367.879-3.223 0-4.688-.879-1.367-2.344-2.343-4.004-2.343-1.758 0-3.223.976-4.102 2.343-.879 1.465-.879 3.32 0 4.688.88 1.465 2.344 2.343 4.102 2.343M18.438 35.875h21.875c.78 0 1.562.781 1.562 1.563 0 .878-.781 1.562-1.562 1.562H18.437a1.543 1.543 0 0 1-1.562-1.562c0-.782.684-1.563 1.563-1.563m-3.125 6.25h21.874c.782 0 1.563.781 1.563 1.563 0 .878-.781 1.562-1.562 1.562H15.311a1.543 1.543 0 0 1-1.562-1.562c0-.782.684-1.563 1.563-1.563"/></svg>