<svg xmlns="http://www.w3.org/2000/svg" width="90" height="90" fill="none" viewBox="0 0 90 90"><path fill="#d0c9b2" d="M28.594 23.375H64.53c1.27 0 2.344 1.074 2.344 2.344 0 1.367-1.074 2.343-2.344 2.343H28.594c-2.246 0-3.907 1.758-3.907 3.907V58.53c0 2.246 1.66 3.907 3.907 3.907h32.812c2.149 0 3.907-1.66 3.907-3.907V41.344a3.92 3.92 0 0 0-3.907-3.907H31.72c-1.367 0-2.344-.976-2.344-2.343 0-1.27.977-2.344 2.344-2.344h29.687c4.688 0 8.594 3.906 8.594 8.594V58.53c0 4.785-3.906 8.594-8.594 8.594H28.594A8.544 8.544 0 0 1 20 58.531V31.97c0-4.688 3.809-8.594 8.594-8.594M57.5 53.063c-1.758 0-3.125-1.368-3.125-3.126 0-1.66 1.367-3.124 3.125-3.124 1.66 0 3.125 1.464 3.125 3.124 0 1.758-1.465 3.126-3.125 3.126"/></svg>