<svg xmlns="http://www.w3.org/2000/svg" width="90" height="90" fill="none" viewBox="0 0 90 90"><path fill="#c6c9a5" d="M42.656 31.969c0-1.27.977-2.344 2.344-2.344 1.27 0 2.344 1.074 2.344 2.344v12.11l8.3 5.468c1.075.781 1.368 2.246.587 3.32-.684 1.074-2.149 1.367-3.223.586l-9.375-6.25c-.586-.39-.977-1.172-.977-1.953zM45 20.25c13.77 0 25 11.23 25 25 0 13.867-11.23 25-25 25-13.867 0-25-11.133-25-25 0-13.77 11.133-25 25-25m-20.312 25c0 11.23 9.082 20.313 20.312 20.313 11.133 0 20.313-9.083 20.313-20.313 0-11.133-9.18-20.312-20.313-20.312-11.23 0-20.312 9.18-20.312 20.312"/></svg>