<svg xmlns="http://www.w3.org/2000/svg" width="217" height="25" fill="none" viewBox="0 0 217 25"><path fill="#fff" d="M14.01.777h3.466v23.649h-3.465V13.514H3.465v10.912H0V.777h3.465V10h10.546zm18.294 24.088a10.6 10.6 0 0 1-4.448-.946 11.7 11.7 0 0 1-3.665-2.652 12.6 12.6 0 0 1-2.482-3.902q-.9-2.23-.9-4.764 0-2.533.9-4.746a12.5 12.5 0 0 1 2.482-3.92 11.5 11.5 0 0 1 3.665-2.634 10.5 10.5 0 0 1 4.448-.963q2.383 0 4.465.963 2.082.946 3.665 2.635A12.3 12.3 0 0 1 42.9 7.855q.9 2.213.9 4.746t-.9 4.764a12.3 12.3 0 0 1-2.466 3.902 11.7 11.7 0 0 1-3.665 2.652q-2.083.945-4.465.946m0-3.514q1.666 0 3.115-.692a8.3 8.3 0 0 0 2.55-1.892A8.9 8.9 0 0 0 39.7 15.98a9 9 0 0 0 .633-3.379q0-1.79-.633-3.378a8.6 8.6 0 0 0-1.733-2.787 7.9 7.9 0 0 0-2.549-1.892 7.1 7.1 0 0 0-3.115-.693q-1.666 0-3.115.693a8.3 8.3 0 0 0-2.566 1.909A9 9 0 0 0 24.89 9.24a9.1 9.1 0 0 0-.617 3.361 9.3 9.3 0 0 0 .617 3.396 9.3 9.3 0 0 0 1.732 2.787q1.117 1.2 2.566 1.892 1.45.675 3.115.675m23.814 3.514q-2.799 0-4.88-1.385-2.067-1.386-3.216-3.716-1.133-2.349-1.133-5.203V.777h3.465v13.784q0 1.858.666 3.412.684 1.538 1.966 2.466 1.3.912 3.132.912 1.882 0 3.166-.912 1.283-.93 1.932-2.466.666-1.554.667-3.412V.777h3.465v13.784q0 2.145-.65 4.02a10.1 10.1 0 0 1-1.866 3.277 8.6 8.6 0 0 1-2.915 2.213q-1.7.794-3.799.794m21.536 0q-1.917 0-3.682-.608-1.766-.609-3.082-1.74-1.317-1.148-1.883-2.72l3.249-1.233q.283.81 1.083 1.453.816.625 1.932.98 1.133.354 2.383.354 1.332 0 2.499-.439 1.182-.44 1.899-1.216a2.57 2.57 0 0 0 .733-1.824q0-1.081-.767-1.774-.75-.693-1.932-1.098a14 14 0 0 0-2.432-.608q-2.45-.406-4.399-1.182-1.932-.778-3.065-2.18-1.116-1.401-1.116-3.648 0-2.111 1.183-3.683 1.2-1.57 3.148-2.432Q75.37.389 77.653.389q1.882 0 3.631.608a9.1 9.1 0 0 1 3.1 1.74 6.34 6.34 0 0 1 1.932 2.753l-3.282 1.2q-.284-.829-1.083-1.437-.8-.624-1.933-.98a7.8 7.8 0 0 0-2.365-.354 6.6 6.6 0 0 0-2.5.44q-1.149.438-1.882 1.215-.733.776-.733 1.808 0 1.266.683 1.925.683.66 1.833.98 1.166.304 2.599.558 2.298.37 4.248 1.233 1.965.861 3.148 2.297 1.2 1.418 1.2 3.497 0 2.095-1.2 3.682-1.183 1.57-3.148 2.45-1.95.86-4.248.86m12.446-.438V.777h14.477v3.514H93.564V10h8.863v3.514h-8.863v7.398h11.012v3.514zM116.719.743c7.663 0 12.294 4.088 12.294 11.115 0 7.94-5.964 12.331-12.961 12.331h-9.363v-.067c1.2-.102 2.1-1.115 2.1-2.365V3.142c0-1.216-.9-2.23-2.1-2.365V.743zm-.334 22.94c5.831 0 9.563-2.298 9.563-10.237 0-7.027-2.965-12.399-10.562-12.399h-3.899v21.52c1.2.642 2.866 1.115 4.898 1.115m23.895.203a8.57 8.57 0 0 0 7.63-4.696L146.744 25l-1.099-.81h-15.56v-.068c1.166-.102 2.099-1.115 2.099-2.331V3.14a2.394 2.394 0 0 0-2.099-2.364V.743h16.826l.999 5c-1.466-2.905-4.398-4.73-7.63-4.73h-5.397v11.318h5.431c1.599 0 3.032-1.013 3.631-2.5h.067v5.27h-.067c-.599-1.52-2.032-2.5-3.631-2.5h-5.431v11.284zm27.376-2.939c1.066-.912 1.866-1.858 2.133-2.5l.199-.473c-.1.304-.133.676-.933 2.06-.366.676-.832 1.285-1.332 1.859-1.067 1.081-2.999 2.331-5.198 2.635-3.932.54-7.497-.71-9.763-3.007s-3.565-5.439-3.665-8.615c-.1-3.85 1.233-7.128 3.399-9.155 2.132-2.027 4.898-3.21 7.996-3.446 1.5-.101 2.966-.034 4.432.27 1.633.338 3.199 1.014 3.765 1.42.366.236.933.641 1.466 1.08l-2.266 2.095c-1.133-1.554-2.499-2.737-4.165-3.514-2.665-1.25-5.097-1.182-7.43.203-1.399.845-2.499 2.196-3.198 4.02-.7 1.858-.967 3.92-.8 6.217.233 3.108 1.299 5.608 3.232 7.5 1.932 1.925 4.265 2.871 6.964 2.905 2.165 0 4.098-.71 5.164-1.554M183.847 0c6.798 0 12.395 4.696 12.395 12.331 0 7.601-5.597 12.331-12.395 12.331s-12.394-4.73-12.394-12.33C171.453 4.695 177.05 0 183.847 0m1.333 24.122c4.965 0 8.23-4.054 8.23-9.933 0-6.892-4.565-13.648-10.895-13.648-4.965 0-8.23 4.054-8.23 9.864 0 6.926 4.565 13.717 10.895 13.717m17.159-9.392c3.466 3.648 8.33 5.912 13.728 5.912.3 0 .633 0 .933-.034l-3.465 3.21c-5.065-1.082-9.263-4.527-11.429-9.156h-.033v7.129c.033 1.216.933 2.23 2.132 2.33v.068h-6.93v-.067c1.166-.102 2.099-1.115 2.099-2.331V3.108c0-1.216-.933-2.196-2.099-2.331V.743h11.029C213.268.743 217 2.905 217 7.23c0 4.73-3.898 8.378-9.896 8.21a20 20 0 0 1-4.765-.71m4.232-13.649h-4.498V14.46c1.133.27 2.932.54 2.999.54h.166c.034 0 .1.034.134.034.533.034 1.066.067 1.566.101h.366c4.798 0 6.731-2.838 6.731-6.723 0-3.615-.933-7.33-7.464-7.33"/></svg>