<svg xmlns="http://www.w3.org/2000/svg" width="18" height="16" fill="none" viewBox="0 0 18 16"><path fill="#fff" d="M14.07 12.642c-.82 0-1.428.669-1.428 1.459 0 .82.638 1.458 1.428 1.458.76 0 1.429-.638 1.429-1.458 0-.79-.608-1.459-1.429-1.459m-8.752 0c-.82 0-1.428.669-1.428 1.459 0 .82.638 1.458 1.428 1.458.76 0 1.428-.638 1.428-1.458 0-.79-.607-1.459-1.428-1.459M17.292 1.368a.96.96 0 0 0-.79-.396H3.677l-.06-.364C3.555.274 3.251 0 2.916 0H.7C.304 0 0 .334 0 .73c0 .364.304.729.699.729h1.58l1.824 9.633a.784.784 0 0 0 .76.577h9.967c.395 0 .73-.303.73-.698a.747.747 0 0 0-.73-.76H5.44l-.274-1.459h9.694a.94.94 0 0 0 .912-.699l1.672-5.804c.09-.304.03-.638-.152-.881"/></svg>