<svg xmlns="http://www.w3.org/2000/svg" width="13" height="13" fill="none" viewBox="0 0 13 13"><path fill="#fff" d="M9.852 3.942c.41 0 .74-.349.74-.78 0-.43-.33-.78-.74-.78-.408 0-.74.35-.74.78s.332.78.74.78"/><path fill="#fff" fill-rule="evenodd" d="M3.575 6.5c0 1.792 1.382 3.25 3.083 3.25 1.7 0 3.083-1.458 3.083-3.25S8.358 3.25 6.658 3.25 3.575 4.708 3.575 6.5m1.541 0c0-.896.692-1.625 1.542-1.625s1.541.729 1.541 1.625-.691 1.625-1.541 1.625S5.116 7.396 5.116 6.5" clip-rule="evenodd"/><path fill="#fff" fill-rule="evenodd" d="M3.575 13H9.74c1.584 0 3.083-1.58 3.083-3.25v-6.5C12.824 1.58 11.325 0 9.74 0H3.575C1.99 0 .492 1.58.492 3.25v6.5C.492 11.42 1.99 13 3.575 13M2.033 3.25c0-.76.821-1.625 1.542-1.625H9.74c.72 0 1.541.865 1.541 1.625v6.5c0 .76-.82 1.625-1.541 1.625H3.575c-.735 0-1.542-.85-1.542-1.625z" clip-rule="evenodd"/></svg>