<svg xmlns="http://www.w3.org/2000/svg" width="14" height="14" fill="none" viewBox="0 0 14 14"><path fill="#fff" d="M2.287 3.375c.884 0 1.6-.756 1.6-1.687C3.888.756 3.172 0 2.288 0S.686.756.686 1.688s.717 1.687 1.6 1.687M3.62 4.5H.954a.274.274 0 0 0-.267.281v8.438c0 .155.12.281.267.281H3.62a.274.274 0 0 0 .267-.281V4.78a.274.274 0 0 0-.267-.28m7.95-.388c-1.14-.411-2.567-.05-3.422.599A.27.27 0 0 0 7.89 4.5H5.222a.274.274 0 0 0-.267.281v8.438c0 .155.12.281.267.281H7.89a.274.274 0 0 0 .266-.281V7.155c.432-.391.987-.516 1.442-.313.44.197.693.676.693 1.314v5.063c0 .155.12.281.267.281h2.668a.274.274 0 0 0 .266-.281v-5.63c-.03-2.31-1.062-3.166-1.922-3.477"/></svg>