<svg xmlns="http://www.w3.org/2000/svg" width="192" height="23" fill="none" viewBox="0 0 192 23"><path fill="#fff" d="M12.397.715h3.066v21.757h-3.066v-10.04H3.066v10.04H0V.715h3.066V9.2h9.33zm16.186 22.161a9.1 9.1 0 0 1-3.936-.87 10.4 10.4 0 0 1-3.243-2.44 11.6 11.6 0 0 1-2.196-3.59q-.796-2.052-.796-4.383t.796-4.367a11.6 11.6 0 0 1 2.196-3.605 10.2 10.2 0 0 1 3.243-2.424A9 9 0 0 1 28.583.31a9 9 0 0 1 3.95.886 10.2 10.2 0 0 1 3.243 2.424 11.4 11.4 0 0 1 2.181 3.605q.796 2.037.796 4.367t-.796 4.383a11.4 11.4 0 0 1-2.181 3.59 10.4 10.4 0 0 1-3.243 2.44 9.1 9.1 0 0 1-3.95.87m0-3.233a6.1 6.1 0 0 0 2.756-.637 7.3 7.3 0 0 0 2.255-1.74 8.2 8.2 0 0 0 1.533-2.565q.56-1.461.56-3.108a8.6 8.6 0 0 0-.56-3.108 8 8 0 0 0-1.533-2.564 7 7 0 0 0-2.255-1.74 6.1 6.1 0 0 0-2.756-.638 6.1 6.1 0 0 0-2.757.637 7.4 7.4 0 0 0-2.27 1.756A8.4 8.4 0 0 0 22.023 8.5a8.7 8.7 0 0 0-.545 3.092q0 1.663.545 3.124a8.6 8.6 0 0 0 1.533 2.564 7.5 7.5 0 0 0 2.27 1.74 6.2 6.2 0 0 0 2.756.622m21.07 3.234q-2.475 0-4.319-1.275-1.827-1.274-2.845-3.419-1.002-2.16-1.002-4.786V.715h3.066v12.68q0 1.71.59 3.14.604 1.415 1.74 2.27 1.15.837 2.77.838 1.665 0 2.8-.839 1.137-.855 1.71-2.269.59-1.43.59-3.14V.716h3.066v12.68q0 1.975-.575 3.7a9.4 9.4 0 0 1-1.65 3.015 7.6 7.6 0 0 1-2.58 2.035q-1.504.73-3.36.73m19.054 0a9.6 9.6 0 0 1-3.258-.56 8.2 8.2 0 0 1-2.727-1.6 6 6 0 0 1-1.666-2.503l2.875-1.134q.25.746.958 1.337a5.5 5.5 0 0 0 1.71.9q1.002.328 2.108.327 1.18 0 2.21-.404 1.047-.404 1.68-1.119a2.42 2.42 0 0 0 .65-1.678q0-.994-.678-1.632-.665-.637-1.71-1.01a12 12 0 0 0-2.152-.56q-2.167-.372-3.892-1.087-1.71-.715-2.712-2.005-.988-1.29-.988-3.357 0-1.942 1.047-3.388 1.06-1.445 2.786-2.237 1.74-.81 3.759-.809 1.665 0 3.213.56a8 8 0 0 1 2.742 1.6 5.84 5.84 0 0 1 1.71 2.534l-2.904 1.103q-.25-.762-.959-1.32-.707-.576-1.71-.902a6.6 6.6 0 0 0-2.093-.327 5.6 5.6 0 0 0-2.21.404q-1.018.405-1.666 1.12a2.4 2.4 0 0 0-.649 1.662q0 1.166.605 1.772.603.606 1.621.901 1.031.28 2.3.513 2.034.342 3.758 1.134 1.74.793 2.786 2.114 1.061 1.305 1.061 3.217 0 1.927-1.06 3.388-1.047 1.444-2.787 2.253-1.725.793-3.758.793m11.012-.404V.715h12.81v3.232h-9.744V9.2h7.842v3.232h-7.842v6.807h9.743v3.233zM103.272.684c6.78 0 10.878 3.76 10.878 10.226 0 7.304-5.277 11.344-11.468 11.344h-8.284v-.062c1.061-.093 1.857-1.026 1.857-2.176V2.891c0-1.12-.796-2.052-1.857-2.176V.684zm-.295 21.104c5.159 0 8.461-2.114 8.461-9.418 0-6.465-2.624-11.406-9.346-11.406h-3.449v19.798c1.062.59 2.536 1.026 4.334 1.026m21.142.186c2.86 0 5.454-1.678 6.751-4.32L129.838 23l-.973-.746h-13.767v-.062c1.032-.093 1.857-1.026 1.857-2.145V2.891c0-1.12-.825-2.052-1.857-2.176V.684h14.888l.884 4.6c-1.297-2.673-3.891-4.352-6.751-4.352h-4.776v10.413h4.805c1.416 0 2.683-.933 3.214-2.3h.059v4.848h-.059c-.531-1.398-1.798-2.3-3.214-2.3h-4.805v10.381zm24.222-2.704c.943-.839 1.651-1.71 1.887-2.3l.177-.435c-.089.28-.118.622-.826 1.896-.324.622-.737 1.181-1.179 1.71-.944.994-2.653 2.144-4.599 2.424-3.479.497-6.633-.653-8.638-2.766s-3.154-5.004-3.243-7.926c-.088-3.543 1.091-6.558 3.007-8.423 1.887-1.865 4.334-2.953 7.076-3.17 1.326-.094 2.623-.031 3.92.248 1.445.311 2.831.933 3.332 1.306.324.217.825.59 1.297.994l-2.005 1.927c-1.002-1.43-2.211-2.517-3.685-3.232-2.358-1.15-4.51-1.088-6.574.186-1.238.777-2.211 2.02-2.83 3.7-.619 1.709-.855 3.605-.708 5.718.207 2.86 1.15 5.16 2.86 6.9 1.71 1.772 3.773 2.642 6.161 2.673 1.917 0 3.626-.653 4.57-1.43M162.667 0c6.014 0 10.967 4.32 10.967 11.345 0 6.993-4.953 11.344-10.967 11.344S151.7 18.338 151.7 11.345C151.7 4.32 156.653 0 162.667 0m1.179 22.192c4.393 0 7.282-3.73 7.282-9.138 0-6.34-4.039-12.557-9.64-12.557-4.393 0-7.282 3.73-7.282 9.076 0 6.372 4.039 12.619 9.64 12.619m15.182-8.641c3.066 3.357 7.371 5.44 12.147 5.44.265 0 .56 0 .825-.032l-3.066 2.953c-4.481-.994-8.196-4.165-10.112-8.423h-.029v6.558c.029 1.12.825 2.052 1.886 2.145v.062h-6.132v-.062c1.032-.093 1.858-1.026 1.858-2.145V2.86c0-1.118-.826-2.02-1.858-2.144V.684h9.759C188.698.684 192 2.673 192 6.65c0 4.352-3.449 7.709-8.756 7.553a17.2 17.2 0 0 1-4.216-.653M182.773.995h-3.98v12.308c1.002.248 2.594.497 2.653.497h.147c.03 0 .089.031.118.031.472.031.944.062 1.386.093h.324c4.245 0 5.955-2.61 5.955-6.185 0-3.325-.825-6.744-6.603-6.744"/></svg>