<svg xmlns="http://www.w3.org/2000/svg" width="17" height="11" fill="none" viewBox="0 0 17 11"><path fill="#fff" fill-rule="evenodd" d="M14.479.343c.65.181 1.161.713 1.336 1.386.324 1.23.309 3.793.309 3.793s-.003 2.549-.317 3.778a1.94 1.94 0 0 1-1.34 1.384C13.28 11.006 8.53 11 8.53 11s-4.739-.005-5.938-.343A1.94 1.94 0 0 1 1.254 9.27C.943 8.055.946 5.492.946 5.492s.003-2.55.316-3.779c.176-.673.702-1.216 1.34-1.396C3.79-.005 8.54 0 8.54 0s4.751.006 5.939.343M7.024 3.144l-.004 4.71 3.953-2.35z" clip-rule="evenodd"/></svg>